<?xml version="1.0" encoding="UTF-8" standalone="no"?>
<!DOCTYPE svg PUBLIC "-//W3C//DTD SVG 1.1//EN"
 "http://www.w3.org/Graphics/SVG/1.1/DTD/svg11.dtd">
<!-- Generated by graphviz version 12.2.1 (20241206.2353)
 -->
<!-- Title: pastafarianism Pages: 1 -->
<svg width="601pt" height="116pt"
 viewBox="0.00 0.00 601.08 116.00" xmlns="http://www.w3.org/2000/svg" xmlns:xlink="http://www.w3.org/1999/xlink">
<g id="graph0" class="graph" transform="scale(1 1) rotate(0) translate(4 112)">
<title>pastafarianism</title>
<polygon fill="white" stroke="none" points="-4,4 -4,-112 597.08,-112 597.08,4 -4,4"/>
<!-- Pick up object -->
<g id="node1" class="node">
<title>Pick up object</title>
<polygon fill="orange" stroke="black" points="353.54,-108 276.04,-108 276.04,-72 353.54,-72 353.54,-108"/>
<text text-anchor="middle" x="314.79" y="-88.2" font-family="Times,serif" font-size="9.00">Ⓜ Pick up object</text>
</g>
<!-- Find grasps for object -->
<g id="node2" class="node">
<title>Find grasps for object</title>
<ellipse fill="gray" stroke="black" cx="54.79" cy="-18" rx="54.79" ry="18"/>
<text text-anchor="middle" x="54.79" y="-14.7" font-family="Times,serif" font-size="9.00">Find grasps for object</text>
</g>
<!-- Pick up object&#45;&gt;Find grasps for object -->
<g id="edge1" class="edge">
<title>Pick up object&#45;&gt;Find grasps for object</title>
<path fill="none" stroke="black" d="M275.58,-78.44C230.61,-66.34 156.68,-46.43 106.89,-33.03"/>
<polygon fill="black" stroke="black" points="108.06,-29.72 97.5,-30.5 106.24,-36.48 108.06,-29.72"/>
</g>
<!-- Plan arm path -->
<g id="node3" class="node">
<title>Plan arm path</title>
<ellipse fill="gray" stroke="black" cx="165.79" cy="-18" rx="37.74" ry="18"/>
<text text-anchor="middle" x="165.79" y="-14.7" font-family="Times,serif" font-size="9.00">Plan arm path</text>
</g>
<!-- Pick up object&#45;&gt;Plan arm path -->
<g id="edge2" class="edge">
<title>Pick up object&#45;&gt;Plan arm path</title>
<path fill="none" stroke="black" d="M277.57,-71.52C254.51,-60.68 225.01,-46.82 202.11,-36.07"/>
<polygon fill="black" stroke="black" points="203.69,-32.94 193.15,-31.85 200.71,-39.27 203.69,-32.94"/>
</g>
<!-- Smooth trajectory -->
<g id="node4" class="node">
<title>Smooth trajectory</title>
<ellipse fill="gray" stroke="black" cx="267.79" cy="-18" rx="46.04" ry="18"/>
<text text-anchor="middle" x="267.79" y="-14.7" font-family="Times,serif" font-size="9.00">Smooth trajectory</text>
</g>
<!-- Pick up object&#45;&gt;Smooth trajectory -->
<g id="edge3" class="edge">
<title>Pick up object&#45;&gt;Smooth trajectory</title>
<path fill="none" stroke="black" d="M303.17,-71.7C297.8,-63.7 291.3,-54.02 285.35,-45.15"/>
<polygon fill="black" stroke="black" points="288.27,-43.23 279.79,-36.88 282.46,-47.13 288.27,-43.23"/>
</g>
<!-- Move arm -->
<g id="node5" class="node">
<title>Move arm</title>
<ellipse fill="gray" stroke="black" cx="362.79" cy="-18" rx="30.75" ry="18"/>
<text text-anchor="middle" x="362.79" y="-14.7" font-family="Times,serif" font-size="9.00">Move arm</text>
</g>
<!-- Pick up object&#45;&gt;Move arm -->
<g id="edge4" class="edge">
<title>Pick up object&#45;&gt;Move arm</title>
<path fill="none" stroke="black" d="M326.65,-71.7C332.28,-63.49 339.11,-53.52 345.32,-44.48"/>
<polygon fill="black" stroke="black" points="348.09,-46.62 350.86,-36.39 342.32,-42.66 348.09,-46.62"/>
</g>
<!-- Close gripper -->
<g id="node6" class="node">
<title>Close gripper</title>
<ellipse fill="gray" stroke="black" cx="448.79" cy="-18" rx="37.3" ry="18"/>
<text text-anchor="middle" x="448.79" y="-14.7" font-family="Times,serif" font-size="9.00">Close gripper</text>
</g>
<!-- Pick up object&#45;&gt;Close gripper -->
<g id="edge5" class="edge">
<title>Pick up object&#45;&gt;Close gripper</title>
<path fill="none" stroke="black" d="M348.26,-71.52C368.32,-61.03 393.8,-47.73 414.08,-37.13"/>
<polygon fill="black" stroke="black" points="415.58,-40.3 422.82,-32.57 412.34,-34.09 415.58,-40.3"/>
</g>
<!-- Lift arm off table -->
<g id="node7" class="node">
<title>Lift arm off table</title>
<ellipse fill="gray" stroke="black" cx="548.79" cy="-18" rx="44.3" ry="18"/>
<text text-anchor="middle" x="548.79" y="-14.7" font-family="Times,serif" font-size="9.00">Lift arm off table</text>
</g>
<!-- Pick up object&#45;&gt;Lift arm off table -->
<g id="edge6" class="edge">
<title>Pick up object&#45;&gt;Lift arm off table</title>
<path fill="none" stroke="black" d="M353.83,-77.73C390.33,-67.14 446.33,-50.76 494.79,-36 497.68,-35.12 500.67,-34.2 503.67,-33.27"/>
<polygon fill="black" stroke="black" points="504.59,-36.65 513.09,-30.34 502.5,-29.97 504.59,-36.65"/>
</g>
</g>
</svg>
