<?xml version="1.0" encoding="UTF-8" standalone="no"?>
<!DOCTYPE svg PUBLIC "-//W3C//DTD SVG 1.1//EN"
 "http://www.w3.org/Graphics/SVG/1.1/DTD/svg11.dtd">
<!-- Generated by graphviz version 12.2.1 (20241206.2353)
 -->
<!-- Title: pastafarianism Pages: 1 -->
<svg width="492pt" height="116pt"
 viewBox="0.00 0.00 491.78 116.00" xmlns="http://www.w3.org/2000/svg" xmlns:xlink="http://www.w3.org/1999/xlink">
<g id="graph0" class="graph" transform="scale(1 1) rotate(0) translate(4 112)">
<title>pastafarianism</title>
<polygon fill="white" stroke="none" points="-4,4 -4,-112 487.78,-112 487.78,4 -4,4"/>
<!-- Place object -->
<g id="node1" class="node">
<title>Place object</title>
<polygon fill="orange" stroke="black" points="300.54,-108 231.29,-108 231.29,-72 300.54,-72 300.54,-108"/>
<text text-anchor="middle" x="265.91" y="-88.2" font-family="Times,serif" font-size="9.00">Ⓜ Place object</text>
</g>
<!-- Find placement poses -->
<g id="node2" class="node">
<title>Find placement poses</title>
<ellipse fill="gray" stroke="black" cx="53.91" cy="-18" rx="53.91" ry="18"/>
<text text-anchor="middle" x="53.91" y="-14.7" font-family="Times,serif" font-size="9.00">Find placement poses</text>
</g>
<!-- Place object&#45;&gt;Find placement poses -->
<g id="edge1" class="edge">
<title>Place object&#45;&gt;Find placement poses</title>
<path fill="none" stroke="black" d="M230.91,-77.44C195.72,-65.82 141.22,-47.83 102,-34.88"/>
<polygon fill="black" stroke="black" points="103.14,-31.57 92.55,-31.76 100.95,-38.22 103.14,-31.57"/>
</g>
<!-- Plan arm path -->
<g id="node3" class="node">
<title>Plan arm path</title>
<ellipse fill="gray" stroke="black" cx="163.91" cy="-18" rx="37.74" ry="18"/>
<text text-anchor="middle" x="163.91" y="-14.7" font-family="Times,serif" font-size="9.00">Plan arm path</text>
</g>
<!-- Place object&#45;&gt;Plan arm path -->
<g id="edge2" class="edge">
<title>Place object&#45;&gt;Plan arm path</title>
<path fill="none" stroke="black" d="M240.44,-71.52C226.4,-61.88 208.89,-49.86 194.16,-39.76"/>
<polygon fill="black" stroke="black" points="196.42,-37.06 186.19,-34.29 192.46,-42.84 196.42,-37.06"/>
</g>
<!-- Smooth trajectory -->
<g id="node4" class="node">
<title>Smooth trajectory</title>
<ellipse fill="gray" stroke="black" cx="265.91" cy="-18" rx="46.04" ry="18"/>
<text text-anchor="middle" x="265.91" y="-14.7" font-family="Times,serif" font-size="9.00">Smooth trajectory</text>
</g>
<!-- Place object&#45;&gt;Smooth trajectory -->
<g id="edge3" class="edge">
<title>Place object&#45;&gt;Smooth trajectory</title>
<path fill="none" stroke="black" d="M265.91,-71.7C265.91,-64.41 265.91,-55.73 265.91,-47.54"/>
<polygon fill="black" stroke="black" points="269.41,-47.62 265.91,-37.62 262.41,-47.62 269.41,-47.62"/>
</g>
<!-- Move arm -->
<g id="node5" class="node">
<title>Move arm</title>
<ellipse fill="gray" stroke="black" cx="360.91" cy="-18" rx="30.75" ry="18"/>
<text text-anchor="middle" x="360.91" y="-14.7" font-family="Times,serif" font-size="9.00">Move arm</text>
</g>
<!-- Place object&#45;&gt;Move arm -->
<g id="edge4" class="edge">
<title>Place object&#45;&gt;Move arm</title>
<path fill="none" stroke="black" d="M289.4,-71.7C302.7,-61.89 319.42,-49.58 333.34,-39.32"/>
<polygon fill="black" stroke="black" points="335.26,-42.25 341.24,-33.5 331.11,-36.61 335.26,-42.25"/>
</g>
<!-- Open gripper -->
<g id="node6" class="node">
<title>Open gripper</title>
<ellipse fill="gray" stroke="black" cx="446.91" cy="-18" rx="36.87" ry="18"/>
<text text-anchor="middle" x="446.91" y="-14.7" font-family="Times,serif" font-size="9.00">Open gripper</text>
</g>
<!-- Place object&#45;&gt;Open gripper -->
<g id="edge5" class="edge">
<title>Place object&#45;&gt;Open gripper</title>
<path fill="none" stroke="black" d="M300.81,-75.5C331.5,-63.63 376.13,-46.38 407.97,-34.06"/>
<polygon fill="black" stroke="black" points="409.18,-37.35 417.25,-30.47 406.66,-30.82 409.18,-37.35"/>
</g>
</g>
</svg>
